<?xml version="1.0" encoding="UTF-8"?>
<svg id="Layer_1" xmlns="http://www.w3.org/2000/svg" version="1.1" xmlns:xlink="http://www.w3.org/1999/xlink" viewBox="0 0 200 50">
  <!-- Generator: Adobe Illustrator 29.3.1, SVG Export Plug-In . SVG Version: 2.1.0 Build 151)  -->
  <defs>
    <style>
      .st0 {
        fill: url(#linear-gradient2);
      }

      .st1 {
        fill: url(#linear-gradient10);
      }

      .st2 {
        fill: url(#linear-gradient1);
      }

      .st3 {
        fill: url(#linear-gradient9);
      }

      .st4, .st5 {
        fill: #603;
      }

      .st6 {
        fill: url(#linear-gradient8);
      }

      .st7 {
        fill: url(#linear-gradient11);
      }

      .st8 {
        fill: url(#linear-gradient12);
      }

      .st5 {
        font-family: HelveticaNeue-Light, 'Helvetica Neue';
        font-size: 8.02px;
        font-weight: 300;
      }

      .st9 {
        fill: url(#linear-gradient7);
      }

      .st10 {
        fill: url(#linear-gradient4);
      }

      .st11 {
        fill: url(#linear-gradient5);
      }

      .st12 {
        fill: url(#linear-gradient3);
      }

      .st13 {
        fill: url(#linear-gradient6);
      }

      .st14 {
        fill: url(#linear-gradient);
      }
    </style>
    <linearGradient id="linear-gradient" x1=".88" y1="25.23" x2="190.78" y2="-20.52" gradientUnits="userSpaceOnUse">
      <stop offset=".14" stop-color="#ba3e63"/>
      <stop offset=".45" stop-color="#ebbab5"/>
      <stop offset=".64" stop-color="#eab8b4"/>
      <stop offset=".8" stop-color="#e5a7a8"/>
      <stop offset="1" stop-color="#d3717d"/>
    </linearGradient>
    <linearGradient id="linear-gradient1" x1="4.76" y1="41.34" x2="194.66" y2="-4.41" xlink:href="#linear-gradient"/>
    <linearGradient id="linear-gradient2" x1="8.59" y1="57.22" x2="198.48" y2="11.47" xlink:href="#linear-gradient"/>
    <linearGradient id="linear-gradient3" x1="2.52" y1="32.03" x2="192.41" y2="-13.72" xlink:href="#linear-gradient"/>
    <linearGradient id="linear-gradient4" x1="1.19" y1="26.53" x2="191.09" y2="-19.22" xlink:href="#linear-gradient"/>
    <linearGradient id="linear-gradient5" x1="8.69" y1="57.63" x2="198.58" y2="11.88" xlink:href="#linear-gradient"/>
    <linearGradient id="linear-gradient6" x1="9.02" y1="59.02" x2="198.91" y2="13.27" xlink:href="#linear-gradient"/>
    <linearGradient id="linear-gradient7" x1="4.91" y1="41.95" x2="194.8" y2="-3.8" xlink:href="#linear-gradient"/>
    <linearGradient id="linear-gradient8" x1="6.01" y1="46.53" x2="195.91" y2=".78" xlink:href="#linear-gradient"/>
    <linearGradient id="linear-gradient9" x1="10.02" y1="63.15" x2="199.91" y2="17.4" xlink:href="#linear-gradient"/>
    <linearGradient id="linear-gradient10" x1="2.53" y1="32.08" x2="192.43" y2="-13.66" xlink:href="#linear-gradient"/>
    <linearGradient id="linear-gradient11" x1="6.41" y1="48.19" x2="196.31" y2="2.44" xlink:href="#linear-gradient"/>
    <linearGradient id="linear-gradient12" x1="9.85" y1="62.44" x2="199.74" y2="16.7" xlink:href="#linear-gradient"/>
  </defs>
  <text class="st5" transform="translate(21.89 46.23)"><tspan x="0" y="0">AESTHETIC STUDIO</tspan></text>
  <g>
    <polygon class="st4" points="130.13 25.75 115.11 25.75 115.11 14.55 117.21 14.55 117.21 23.66 130.13 23.66 130.13 25.75"/>
    <path class="st4" d="M137.58,25.75c-2.63,0-4.77-2.14-4.77-4.77s2.14-4.77,4.77-4.77,4.77,2.14,4.77,4.77-2.14,4.77-4.77,4.77ZM137.58,18.3c-1.48,0-2.68,1.2-2.68,2.68s1.2,2.68,2.68,2.68,2.68-1.2,2.68-2.68-1.2-2.68-2.68-2.68Z"/>
    <path class="st4" d="M130.13,25.75v-2.09c1.48,0,2.68-1.2,2.68-2.68h2.09c0,2.63-2.14,4.77-4.77,4.77Z"/>
  </g>
  <rect class="st4" x="153.2" y="14.55" width="2.09" height="21.29"/>
  <path class="st4" d="M87.53,27.35c.02,2.71-.63,4.77-2.3,6.3-1.5,1.37-3.52,2.04-5.33,2.19v-2.1c1.34-.13,2.83-.64,3.92-1.63,1.19-1.1,1.62-2.56,1.62-4.63,0-2.91-.08-12.58-.07-12.94l2.09.02c0,.09.04,9.96.06,12.79Z"/>
  <rect class="st4" x="44.38" y="14.54" width="2.09" height="21.24"/>
  <g>
    <path class="st14" d="M46.48,13.45h-2.09c-.04-5.54-4.56-10.04-10.12-10.04s-10.11,4.54-10.11,10.11v22.32h-2.09V13.52c0-6.73,5.48-12.2,12.2-12.2s12.18,5.44,12.21,12.13Z"/>
    <g>
      <path class="st2" d="M115.11,13.45c-.03-5.54-4.56-10.04-10.11-10.04s-10.11,4.54-10.11,10.11v22.32h-2.09V13.52c0-6.73,5.47-12.2,12.2-12.2s12.17,5.44,12.2,12.13h-2.09Z"/>
      <rect class="st0" x="115.11" y="26.76" width="2.09" height="9.08"/>
    </g>
    <path class="st12" d="M54.02,35.84h-2.09V13.52c0-6.73,5.47-12.2,12.2-12.2s12.21,5.47,12.21,12.2v12.34h-2.09v-12.34c0-5.58-4.54-10.11-10.11-10.11s-10.11,4.54-10.11,10.11v22.32Z"/>
    <path class="st10" d="M87.5,13.45h-2.09c-.02-2.67-1.07-5.19-2.96-7.08-1.91-1.91-4.45-2.96-7.15-2.96-1.78,0-3.52.47-5.06,1.35l-1.05-1.81c1.85-1.07,3.96-1.63,6.11-1.63,3.26,0,6.32,1.26,8.63,3.57,2.29,2.3,3.55,5.34,3.57,8.57Z"/>
    <path class="st11" d="M177.61,13.52v22.32h-2.09V13.52c0-5.57-4.54-10.11-10.11-10.11s-10.08,4.5-10.11,10.04h-2.09c.03-6.69,5.5-12.13,12.2-12.13s12.2,5.48,12.2,12.2Z"/>
    <g>
      <rect class="st13" x="123.02" y="26.76" width="2.09" height="9.08"/>
      <path class="st9" d="M147.42,13.53v.29h-2.09v-.29c0-.13,0-.26,0-.38l-.06-.77s0-.05,0-.07c-.03-.21-.06-.41-.09-.61,0-.01,0-.03,0-.04-.04-.2-.08-.4-.13-.59-.03-.14-.07-.28-.11-.41-.03-.12-.08-.24-.12-.36-.11-.36-.25-.7-.41-1.05-.06-.11-.1-.22-.16-.32-.06-.12-.11-.22-.17-.33-.15-.28-.33-.55-.51-.81h0c-.06-.1-.14-.2-.21-.29-.17-.23-.35-.47-.55-.69-.06-.06-.13-.13-.19-.2-.06-.07-.13-.14-.2-.21-.95-.94-2.06-1.69-3.24-2.18-.31-.13-.61-.24-.92-.34-.98-.3-1.98-.45-3.01-.45-.33,0-.68.01-1.05.05-.65.07-1.31.2-1.96.4-.2.06-.4.13-.61.22-.48.18-.9.38-1.28.6l-.13.06s-.04.03-.06.04l-.09.06c-.1.06-.2.12-.3.18-.07.05-.15.1-.22.14-.24.17-.49.35-.73.55-.25.2-.48.41-.73.66-1.91,1.91-2.97,4.44-2.97,7.16v9.05h-2.09v-9.05c0-3.27,1.27-6.34,3.58-8.65.31-.31.59-.56.88-.79.29-.25.61-.49.93-.7l.06-.04s.08-.05.13-.08c.14-.09.29-.19.43-.27.09-.06.19-.12.31-.17.47-.27.98-.51,1.51-.7.21-.09.47-.18.75-.27.79-.24,1.59-.41,2.38-.5.45-.04.87-.06,1.26-.06,1.24,0,2.46.18,3.62.55.38.11.76.25,1.13.41,1.28.54,2.5,1.33,3.55,2.3.11.09.21.2.31.3h.01s.03.04.05.06c.15.15.29.31.43.46.28.32.52.61.73.89.07.09.14.18.2.28.07.1.14.2.2.3.08.1.14.21.2.31.08.13.15.26.22.38.08.13.15.27.21.4.06.11.11.22.17.33.01.01.02.03.02.05.18.4.35.82.5,1.26.05.14.1.28.14.42.05.14.09.29.12.43.03.13.07.27.1.4.03.14.06.27.08.41.03.14.06.29.07.43.02.14.04.29.06.43l.07.91c0,.17,0,.32,0,.49Z"/>
    </g>
    <path class="st6" d="M147.43,13.53c0,.12,0,.24,0,.36-.08,3.08-1.34,6.04-3.57,8.27-.04.04-.08.08-.12.11.08-.42.13-.85.13-1.3,0-.62-.09-1.22-.27-1.79h0c1.07-1.6,1.67-3.45,1.72-5.4,0-.12,0-.19,0-.26,0-2.7-1.05-5.25-2.96-7.16l.73-.74v-1.05h.43l.31.31c2.3,2.31,3.57,5.38,3.57,8.64Z"/>
    <path class="st3" d="M147.43,35.84h-2.09c0-1.92-.54-3.78-1.56-5.4-.38-.61-.85-1.2-1.4-1.76-.75-.75-1.6-1.37-2.53-1.84.75-.29,1.43-.71,2.01-1.25.72.45,1.39,1,2,1.61.66.68,1.24,1.39,1.69,2.12,1.23,1.95,1.88,4.2,1.88,6.52Z"/>
    <rect class="st1" x="23.11" y="23.66" width="20.12" height="2.09"/>
    <rect class="st7" x="93.84" y="23.66" width="20.12" height="2.09"/>
    <rect class="st8" x="156.45" y="23.66" width="20.12" height="2.09"/>
  </g>
</svg>